<?xml version="1.0" standalone="yes"?>
<svg xmlns="http://www.w3.org/2000/svg" width="540" height="540">
<path style="fill:#000000; stroke:none;" d="M0 0L0 540L540 540L540 0L0 0z"/>
<path style="fill:#ffffff; stroke:none;" d="M173 134.428C161.084 136.134 149.752 139.871 139 145.247C134.881 147.306 129.878 149.228 126.638 152.61C123.11 156.292 121.547 162.387 119.579 167C115.615 176.29 111.751 185.622 108 195C91.6992 235.757 79.9252 277.44 73.8696 321C71.2657 339.73 69.6098 361.423 73.8873 380C75.6979 387.863 78.4278 396.085 85.0903 401.211C108.978 419.587 138.525 390.715 156 376.386C171.652 363.551 185.59 347.143 204 338.258C214.978 332.961 227.084 331.969 239 330.83C259.072 328.912 279.919 329.503 300 330.91C313.223 331.837 327.309 333.685 339 340.465C350.476 347.12 360.163 357.054 370 365.834C380.228 374.963 390.905 383.79 402 391.848C414.586 400.989 426.933 409.232 443 405.711C469.116 399.988 468.135 361.65 466.17 341C461.494 291.871 450.148 244.869 431.8 199C427.655 188.638 423.523 178.267 419.15 168C417.157 163.321 415.548 157.294 412.301 153.329C409.745 150.208 405.472 148.342 402 146.436C391.283 140.555 379.129 136.301 367 134.845C361.884 134.231 355.907 132.903 351 135.14C336.944 141.547 327.213 155.266 312 160.251C305.424 162.406 298.79 162.521 292 163.17C274.409 164.851 255.551 164.99 238 162.711C226.371 161.2 216.481 156.336 207 149.573C195.705 141.515 187.833 132.304 173 134.428z"/>
<path style="fill:#ddeedd; stroke:none;" d="M364.667 134.333C364.222 134.778 365.278 134.722 365.333 134.667C365.778 134.222 364.722 134.278 364.667 134.333M236.667 162.333C236.222 162.778 237.278 162.722 237.333 162.667C237.778 162.222 236.722 162.278 236.667 162.333M300.667 162.333C300.222 162.778 301.278 162.722 301.333 162.667C301.778 162.222 300.722 162.278 300.667 162.333M249 163C250.769 163.779 252.036 163.912 254 164C252.231 163.221 250.964 163.088 249 163M284 163C286.052 163.874 287.747 163.953 290 164C287.948 163.126 286.253 163.047 284 163z"/>
<path style="fill:#000000; stroke:none;" d="M266 193.444C240.946 197.179 235.066 233.715 260 242.867C264.44 244.496 270.372 244.485 275 243.671C306.061 238.213 296.935 188.831 266 193.444z"/>
<path style="fill:#ddeedd; stroke:none;" d="M243 217L243 221C243.71 219.24 243.71 218.759 243 217M267 244C268.769 244.779 270.036 244.912 272 245C270.231 244.221 268.964 244.088 267 244M241 330C242.769 330.779 244.036 330.912 246 331C244.231 330.221 242.964 330.088 241 330M292 330C293.769 330.779 295.036 330.912 297 331C295.231 330.221 293.964 330.088 292 330M229.667 331.333C229.222 331.778 230.278 331.722 230.333 331.667C230.778 331.222 229.722 331.278 229.667 331.333M307.667 331.333C307.222 331.778 308.278 331.722 308.333 331.667C308.778 331.222 307.722 331.278 307.667 331.333M466 341L466 344C466.696 342.446 466.696 342.554 466 341M71 346L71 361C72.7404 356.852 72.7404 350.148 71 346M466 363L466 366C466.696 364.446 466.696 364.554 466 363M438.667 406.333C438.222 406.778 439.278 406.722 439.333 406.667C439.778 406.222 438.722 406.278 438.667 406.333z"/>
</svg>
